{
	"buffers":[{
		"uri":"data:application/octet-stream;base64,",
		"byteLength":31664
	}],
	"asset":{
		"version":"2.0",
		"generator":""
	},
	"scenes":[{
		"nodes":[0]
	}],
	"nodes":[{
		"name":"bookcase",
		"translation":[-0.7766548991203308,
		-0.619944155216217,
		-1.1736160516738892],
		"scale":[1.0,
		1.0,
		1.0],
		"rotation":[0.0,
		0.0,
		0.0,
		-1.0],
		"children":[1]
	},
	{
		"name":"bookcase",
		"mesh":0
	}],
	"meshes":[{
		"name":"bookcase",
		"primitives":[{
			"attributes":{
				"POSITION":1,
				"NORMAL":2,
				"TEXCOORD_0":3
			},
			"indices":0,
			"material":0
		}]
	}],
	"accessors":[{
		"bufferView":0,
		"type":"SCALAR",
		"componentType":5123,
		"count":3624,
		"max":[762],
		"byteOffset":0,
		"min":[0]
	},
	{
		"bufferView":1,
		"type":"VEC3",
		"componentType":5126,
		"count":763,
		"max":[0.19600516557693482,
		0.37256327271461489,
		0.21657629311084748],
		"byteOffset":0,
		"min":[-0.19600516557693482,
		-0.37256327271461489,
		-0.20162668824195863]
	},
	{
		"bufferView":1,
		"type":"VEC3",
		"componentType":5126,
		"count":763,
		"max":[1.0,
		1.0,
		0.9967444539070129],
		"byteOffset":12,
		"min":[-1.0,
		-1.0,
		-1.0]
	},
	{
		"bufferView":1,
		"type":"VEC2",
		"componentType":5126,
		"count":763,
		"max":[1.0127549171447755,
		1.0123991966247559],
		"byteOffset":24,
		"min":[-0.012754766270518303,
		-0.012399151921272278]
	}],
	"bufferViews":[{
		"buffer":0,
		"byteOffset":0,
		"byteLength":7248,
		"target":34963
	},
	{
		"buffer":0,
		"byteOffset":7248,
		"byteLength":24416,
		"target":34962,
		"byteStride":32
	}],
	"materials":[{
		"alphaMode":"OPAQUE",
		"pbrMetallicRoughness":{
			"baseColorFactor":[0.7769784172661867,
			0.4460638683297966,
			0.24036022980177008,
			1.0],
			"metallicFactor":0.0,
			"roughnessFactor":1.0
		},
		"emissiveFactor":[0.0,
		0.0,
		0.0],
		"doubleSided":false,
		"name":"RS Material.10"
	}]
}